<svg xmlns="http://www.w3.org/2000/svg" viewBox="0 0 79.9 78.82"><defs><style>.cls-1{fill:#4d4d4d;}.cls-2{fill:none;stroke:#4d4d4d;stroke-miterlimit:10;}</style></defs><title>logo</title><g id="Layer_2" data-name="Layer 2"><g id="Layer_1-2" data-name="Layer 1"><path class="cls-1" d="M31.18,31.51a0,0,0,0,1,0,0l-.4,0A2.35,2.35,0,0,1,31.18,31.51Z"/><path class="cls-1" d="M39.41,60.3l0,0h-.06s0-.09,0-.13Z"/><path class="cls-1" d="M40.68,44.44v.12h-.09v-.13Z"/><path class="cls-1" d="M39.41,60.3l0,0h-.06s0-.09,0-.13Z"/><path class="cls-1" d="M40.68,44.44v.12h-.09v-.13Z"/><path class="cls-1" d="M50.38,10.31l-.11.06a19.28,19.28,0,0,1,1.9,6.31,32.21,32.21,0,0,1,.23,6.59c0,.43,0,.84-.1,1.27a9,9,0,0,1-.09,1c.39-.88.75-1.77,1.12-2.65V22.3C53.3,18.14,52.58,13.87,50.38,10.31Z"/><path class="cls-1" d="M55.24,17.84c-.6,1.68-1.23,3.36-1.9,5-.37.89-.73,1.78-1.12,2.65a9,9,0,0,0,.09-1c.35-.74.69-1.49,1-2.23C54,20.83,54.63,19.33,55.24,17.84Z"/><path class="cls-1" d="M43.72,22.32a9.93,9.93,0,0,0-1.11,1.25c0-.22,0-.44-.09-.66-.12-.95-.24-1.89-.34-2.84l-.38-3.49c-.07-.58-.15-1.16-.24-1.73a6.76,6.76,0,0,0-.16-.86c0-.13-.07-.27-.11-.4a.94.94,0,0,0-.09-.16s0,0-.07,0L41,13.37a.2.2,0,0,1,.29-.09.65.65,0,0,1,.18.18,2.26,2.26,0,0,1,.23.4,8.31,8.31,0,0,1,.37.84c.21.57.38,1.14.54,1.72.32,1.14.55,2.31.77,3.48.11.62.19,1.25.27,1.89C43.68,22,43.71,22.15,43.72,22.32Z"/><path class="cls-1" d="M54.46,39.65a21.84,21.84,0,0,0-4.81,3c.66-2,1.25-4,1.77-6.05A59.8,59.8,0,0,0,53.34,23.3v-.45c-.37.89-.73,1.78-1.12,2.65a72.54,72.54,0,0,1-2,10.79q-1,4-2.36,8a24,24,0,0,0-5.54,8.83c0-.43.1-.86.13-1.3a34,34,0,0,0,.16-6.5c0-.55-.11-1.1-.21-1.63a4.59,4.59,0,0,0-.12-.67,10.82,10.82,0,0,0,2.15-2.59c.63-1,1.24-2.06,1.84-3.09,1.21-2.07,2.34-4.19,3.4-6.33Q51,28.3,52.22,25.51a9,9,0,0,0,.09-1c-1,2.11-2.07,4.18-3.19,6.21s-2.36,4.14-3.64,6.14c-.63,1-1.29,2-1.95,3a11.43,11.43,0,0,1-1.63,1.92A13.41,13.41,0,0,0,41,39.83a1.58,1.58,0,0,0,1.33-.58,5,5,0,0,0,.83-1.62,18.33,18.33,0,0,0,.68-3.52A55.64,55.64,0,0,0,44,27c0-1.56-.11-3.12-.27-4.68a9.93,9.93,0,0,0-1.11,1.25c.16,1.16.3,2.31.4,3.48a54.16,54.16,0,0,1,.23,7,17.43,17.43,0,0,1-.43,3.46,4.69,4.69,0,0,1-.67,1.56c-.26.39-.95.27-1.44.21L40.57,39a19.59,19.59,0,0,0-2.4-3.18,28.07,28.07,0,0,1,1.1-5.39,23.39,23.39,0,0,1,2.17-5.11c.37-.61.75-1.22,1.18-1.79,0-.22,0-.44-.09-.66A16.94,16.94,0,0,0,40.89,25a24.58,24.58,0,0,0-2.51,5.15,28.38,28.38,0,0,0-1.25,4.61c0-.06-.07-.1-.11-.1a39,39,0,0,1-2.75-6.09,30.4,30.4,0,0,1-.94-3.06,103.85,103.85,0,0,1,5.53-10c1.44-2.42,2.89-4.85,4.13-7.41A19.84,19.84,0,0,0,45.23,0h-.12a22.37,22.37,0,0,1-2.9,7.78c-1.34,2.43-2.89,4.77-4.41,7.15a75.58,75.58,0,0,0-4.89,8.67A23.93,23.93,0,0,1,32.56,21a39,39,0,0,1,.41-7.8c.26-2.59.85-5.27.55-8H33.4C33,7.82,32.26,10.32,31.76,13a26.1,26.1,0,0,0-.17,8.08,28.3,28.3,0,0,0,.74,3.8,37.43,37.43,0,0,0-1.85,5.38,23.71,23.71,0,0,0-.65,3.46c-.35-.72-.67-1.46-1-2.2a44.77,44.77,0,0,1-2.17-8.74c-.54-3-.78-6-1.11-9h-.12a36.57,36.57,0,0,0,0,9.23A33.89,33.89,0,0,0,28,31.85a30.11,30.11,0,0,0,1.69,3.3c-.07,1.19-.07,2.39,0,3.57,0,.71.06,1.41.11,2.11l-.5-.34A9.93,9.93,0,0,1,26.58,38a4.84,4.84,0,0,1-.9-3.52l-.12,0a4.64,4.64,0,0,0,.29,4,9.8,9.8,0,0,0,2.71,3.06c.46.34.91.68,1.38,1,.15,1.57.35,3.14.62,4.7a32.16,32.16,0,0,0,2.59,8.11,33.4,33.4,0,0,0,4.09,6.89c-.1.57-.18,1.14-.27,1.72a100,100,0,0,0-.68,14.44h6.29a102.75,102.75,0,0,1-1.17-14.1c0-.71,0-1.4.06-2.11l.27-.54c2-4,3.82-8.07,5.48-12.24.79-2,1.55-4.07,2.24-6.14a21.87,21.87,0,0,1,5-3.45ZM38.14,57.51c0,.21-.09.4-.13.61-.27-.39-.52-.79-.78-1.18-.71-1.1-1.53-2.12-2.18-3.26a17.46,17.46,0,0,1-1.57-3.59,10.53,10.53,0,0,1-.54-3.9h-.11a13.32,13.32,0,0,0,1.35,8,15.13,15.13,0,0,0,2.06,3.54,14.4,14.4,0,0,0,1.53,1.57c-.18.86-.34,1.74-.49,2.61-1.22-2.28-2.25-4.61-3.24-7-1-2.59-1.92-5.22-2.74-7.89a29.1,29.1,0,0,1-.94-4.2,31.06,31.06,0,0,1,4.16,3.52,18.75,18.75,0,0,1,4.09,6.42c.15.39.27.78.39,1.18C38.72,55.09,38.41,56.28,38.14,57.51Zm1.23,2.82h-.06s0-.09,0-.13l.07.11Zm1.3-15.78h-.09c0,.27,0,.55,0,.83a32.15,32.15,0,0,1-.93,6c-.11.49-.23,1-.35,1.46a3,3,0,0,0-.09-.32,19.09,19.09,0,0,0-3.94-6.87,27.39,27.39,0,0,0-5.08-4.58,22.1,22.1,0,0,1-.06-2.37c0-.88.09-1.75.18-2.62a21.79,21.79,0,0,0,2.76,3.49,24.28,24.28,0,0,0,3.47,3,16.86,16.86,0,0,0,1.94,1.24,5,5,0,0,0,2.12.68v-.13a4.72,4.72,0,0,1-2-.73,16.45,16.45,0,0,1-1.86-1.3,22.25,22.25,0,0,1-3.28-3.14,23.36,23.36,0,0,1-3-4.33c.17-1.14.41-2.26.69-3.37l-.4,0a2.35,2.35,0,0,1,.41,0c.1-.33.18-.67.28-1a34.82,34.82,0,0,1,1.41-3.91c.26.75.52,1.5.83,2.23a36.82,36.82,0,0,0,2.76,5.33l0,0a14,14,0,0,0-2.62-1.83,6.34,6.34,0,0,0-2.63-.79,0,0,0,0,1,0,0A9.15,9.15,0,0,1,36,34.6c.34.38.68.75,1,1.16a20.18,20.18,0,0,1,2.45,3.91,13.63,13.63,0,0,1,1,2.81,8.54,8.54,0,0,1,.18,1.95h.09Zm1.11,15a23.53,23.53,0,0,1,5.77-14.4A133.51,133.51,0,0,1,41.78,59.57Z"/><path class="cls-1" d="M39.41,60.3l0,0h-.06s0-.09,0-.13Z"/><path class="cls-1" d="M50.32,19.39A14.9,14.9,0,0,0,45,21.21a8.19,8.19,0,0,0-1.33,1.11,9.93,9.93,0,0,0-1.11,1.25c0-.22,0-.44-.09-.66a9.9,9.9,0,0,1,1.14-1.12,9.34,9.34,0,0,1,1.21-.85A15.08,15.08,0,0,1,50.32,19.39Z"/><path class="cls-1" d="M31.18,31.51a0,0,0,0,1,0,0l-.4,0A2.35,2.35,0,0,1,31.18,31.51Z"/><line class="cls-2" y1="78.32" x2="79.9" y2="78.32"/></g></g></svg>