<svg xmlns="http://www.w3.org/2000/svg" xmlns:xlink="http://www.w3.org/1999/xlink" viewBox="0 0 32 28"><defs><style>.cls-1,.cls-2{fill:none;}.cls-1{clip-rule:evenodd;}.cls-3{clip-path:url(#clip-path);}.cls-4{clip-path:url(#clip-path-2);}.cls-5{clip-path:url(#clip-path-3);}.cls-6{clip-path:url(#clip-path-5);}</style><clipPath id="clip-path"><path class="cls-1" d="M6.5,5h19a1.5,1.5,0,0,1,0,3H6.5a1.5,1.5,0,0,1,0-3Z"/></clipPath><clipPath id="clip-path-2"><rect class="cls-2" x="5" y="5" width="22" height="18"/></clipPath><clipPath id="clip-path-3"><path class="cls-1" d="M6.5,12.5h19a1.5,1.5,0,0,1,0,3H6.5a1.5,1.5,0,0,1,0-3Z"/></clipPath><clipPath id="clip-path-5"><path class="cls-1" d="M6.5,20h19a1.5,1.5,0,0,1,0,3H6.5a1.5,1.5,0,0,1,0-3Z"/></clipPath></defs><title>menu-ico</title><g id="Layer_2" data-name="Layer 2"><g id="Layer_1-2" data-name="Layer 1"><g class="cls-3"><g class="cls-4"><rect width="32" height="13"/></g></g><g class="cls-5"><g class="cls-4"><rect y="7.5" width="32" height="13"/></g></g><g class="cls-6"><g class="cls-4"><rect y="15" width="32" height="13"/></g></g></g></g></svg>